<svg width="800" height="600" xmlns="http://www.w3.org/2000/svg">

 <g>
  <title>Layer 1</title>
  <path id="svg_5" d="m306.72418,388.19703c-6.71849,-6.47258 -17.16602,-7.21068 -19.67823,-16.42355c-1.96907,-5.01105 -20.53189,-11.73186 -9.54552,-2.73771c8.48342,5.4198 18.56226,25.41059 -2.30876,19.09449c-15.87397,-4.10347 -16.55466,-16.77459 -20.80964,-26.26101c-13.8369,-6.76193 3.57743,-21.05952 -11.32097,-29.72334c-12.64452,-9.04399 -3.83841,-25.98204 -21.90637,-32.39472c-9.06892,-2.59264 -12.99437,15.30834 -14.52133,2.2126c-4.96847,-13.24502 -22.51578,6.43852 -34.21681,4.35176c-9.44206,-0.57816 15.79413,-5.20175 3.75128,-6.44599c-7.08027,2.73008 -13.63123,7.45056 -14.75139,-0.36323c-8.51714,-3.56297 -26.37777,-9.2529 -25.91381,-14.91303c7.39627,-1.63658 32.36523,3.09894 28.0382,-3.48094c-7.42491,-1.98476 -8.77368,-7.41023 0.32037,-3.76902c17.92182,0.396 38.9313,-4.64298 53.8434,4.99462c7.7782,3.37105 15.426,15.46132 19.59006,3.71184c13.42295,-11.4035 40.50829,-12.36941 48.78293,-27.13409c2.00236,-7.14334 -6.14974,-11.21882 -13.07519,-12.66575c-1.34735,-2.34756 -3.64097,-12.3144 -9.36786,-7.28482c0.26102,-4.40208 5.63313,-14.929 -6.26629,-10.26873c-1.20693,-9.37615 10.17252,-18.73046 -4.88096,-25.55829c14.1043,1.84294 11.32299,-9.48296 8.25095,-11.2792c8.36091,-0.83624 18.17282,-6.13574 13.56291,-12.70093c9.07972,11.61059 9.39455,-14.08579 16.86984,-3.00988c13.75831,1.58874 -4.2742,-8.65804 8.38007,-6.37092c7.22573,0.17415 5.62092,-5.57663 12.11211,-1.23632c8.59098,-3.30174 -6.58583,-13.28015 7.28521,-6.34703c4.66295,2.85335 19.50846,10.32671 16.84483,0.46496c13.18059,9.90345 23.55303,-9.19862 34.50559,-13.15447c4.34436,-3.6609 13.79154,-7.53527 5.07876,-0.54701c-5.78415,8.90788 -25.40782,18.54431 -20.12845,27.39558c-4.77866,3.06435 9.64167,6.91571 -1.83752,5.75559c-6.8006,5.17069 9.11739,14.84473 10.38773,22.9826c-3.64619,5.57588 -17.53004,11.90599 -23.14641,11.70592c2.05273,-7.17895 -2.3973,-16.53591 -15.39502,-12.47806c7.28106,9.38387 17.12496,18.34844 23.2925,28.55323c6.02833,10.0318 15.80224,21.6165 28.66117,8.70556c8.19591,-8.22889 31.60961,-8.10977 25.17806,5.25398c-3.28783,13.12281 5.51468,30.44228 -11.39914,39.48173c-10.20335,13.84887 -21.51514,-5.14931 -13.49894,-12.33648c-2.04261,-2.05387 -3.62279,-3.5037 2.35441,-6.3112c-1.2342,-2.10592 17.20137,-10.02895 7.90992,-14.89064c-10.56751,8.44044 -26.03022,18.21029 -21.73295,30.75689c3.4877,8.40774 -25.27719,22.82204 -22.97699,8.86862c0.51523,-5.42277 11.50697,-15.93272 8.97682,-17.28672c-8.02497,10.60594 -19.44088,20.79522 -36.69148,23.94414c-14.34911,0.59894 -21.86576,8.73679 -15.05164,17.76582c1.30224,12.79454 -8.28618,24.37424 -10.49366,36.83153c4.10345,13.21259 29.0864,15.88253 32.47746,29.36039c5.8269,9.05173 -8.74847,7.71403 -15.53931,5.18124l0.00003,0.00001zm-35.52786,-39.41744c-2.10328,-5.97249 -6.43167,15.52555 -1.09614,4.11526l0.79874,-2.01588l0.2974,-2.09939l0,0.00001z" stroke="#000" fill="#000000"/>
 </g>
</svg>